<svg xmlns="http://www.w3.org/2000/svg" xmlns:xlink="http://www.w3.org/1999/xlink" width="500" zoomAndPan="magnify" viewBox="0 0 375 374.999991" height="500" preserveAspectRatio="xMidYMid meet" version="1.0"><defs><clipPath id="6b3aea0c15"><path d="M 130 163 L 247 163 L 247 262.5 L 130 262.5 Z M 130 163 " clip-rule="nonzero"/></clipPath><clipPath id="2b4928cbfd"><path d="M 193 112.5 L 224 112.5 L 224 154 L 193 154 Z M 193 112.5 " clip-rule="nonzero"/></clipPath></defs><g clip-path="url(#6b3aea0c15)"><path fill="#5f94d1" d="M 138.277344 202.792969 C 137.617188 199.945312 137.226562 197.035156 137.226562 194.128906 C 137.226562 193.46875 137.257812 192.835938 137.285156 192.179688 C 137.4375 189.449219 137.949219 186.71875 138.789062 184.113281 C 140.324219 179.402344 143.179688 175.265625 147.542969 172.804688 C 152.351562 170.078125 157.945312 169.988281 163.179688 171.488281 C 171.085938 173.765625 178.003906 179.492188 183.265625 185.640625 L 188.410156 191.667969 L 193.550781 185.640625 C 198.8125 179.492188 205.699219 173.765625 213.640625 171.488281 C 218.871094 169.988281 224.464844 170.078125 229.277344 172.804688 C 233.636719 175.265625 236.496094 179.402344 238.027344 184.113281 C 238.871094 186.71875 239.382812 189.417969 239.53125 192.179688 C 240.011719 200.875 237.097656 209.480469 232.855469 216.976562 C 227.894531 225.765625 220.855469 233.652344 213.160156 240.128906 C 209.878906 242.886719 206.363281 245.496094 202.695312 247.835938 C 196.710938 251.675781 186.335938 257.34375 189.070312 248.914062 C 190.785156 245.464844 191.71875 242.078125 191.867188 238.691406 C 183.507812 235.601562 179.265625 230.984375 179.148438 224.894531 C 179.808594 229.871094 183.507812 233.652344 190.214844 236.230469 C 196.527344 238.089844 198.8125 236.558594 197.101562 231.703125 C 195.207031 226.8125 194.421875 222.796875 194.695312 219.585938 C 194.964844 221.386719 195.714844 224.117188 196.917969 227.832031 L 207.476562 217.546875 C 211.171875 214.429688 212.46875 209.871094 211.382812 203.8125 C 210.8125 200.183594 209.371094 198.777344 207.082031 199.644531 C 200.378906 203.242188 195.808594 204.414062 193.371094 203.125 C 191.175781 201.382812 187.507812 201.625 182.363281 203.875 C 177.433594 206.242188 174.515625 209.390625 173.582031 213.257812 C 170.335938 224.175781 165.222656 231.460938 158.21875 235.089844 C 156.023438 236.230469 153.617188 237.039062 151.058594 237.460938 C 161.613281 248.527344 175.058594 257.550781 188.4375 262.5 C 221.367188 250.292969 254.71875 213.53125 244.492188 181.980469 C 237.457031 160.242188 210.511719 155.414062 188.4375 181.203125 C 166.367188 155.414062 139.453125 160.242188 132.386719 181.980469 C 130.582031 187.5 130.128906 193.167969 130.792969 198.867188 C 130.792969 198.957031 130.820312 199.046875 130.820312 199.136719 C 130.851562 199.34375 130.882812 199.554688 130.910156 199.765625 C 130.910156 199.886719 130.941406 199.976562 130.941406 200.09375 C 130.972656 200.273438 131 200.484375 131.03125 200.664062 C 131.03125 200.753906 131.0625 200.84375 131.0625 200.933594 C 131.09375 201.203125 131.152344 201.445312 131.183594 201.714844 L 131.183594 201.746094 C 131.242188 202.015625 131.273438 202.285156 131.332031 202.582031 L 131.363281 202.675781 C 131.421875 202.945312 131.484375 203.242188 131.542969 203.511719 L 131.542969 203.542969 C 131.601562 203.785156 131.664062 204.023438 131.695312 204.261719 C 131.722656 204.382812 131.753906 204.503906 131.785156 204.59375 C 131.785156 204.652344 131.8125 204.683594 131.8125 204.742188 C 134.371094 215.238281 140.503906 224.625 149.253906 231.222656 C 143.753906 222.527344 140.054688 212.871094 138.277344 202.792969 Z M 138.277344 202.792969 " fill-opacity="1" fill-rule="evenodd"/></g><path fill="#5f94d1" d="M 141.285156 145.636719 C 138.128906 139.160156 131.664062 135.800781 126.820312 138.140625 C 122.011719 140.480469 120.65625 147.617188 123.816406 154.09375 C 126.972656 160.570312 133.4375 163.929688 138.277344 161.589844 C 143.089844 159.25 144.445312 152.113281 141.285156 145.636719 Z M 141.285156 145.636719 " fill-opacity="1" fill-rule="evenodd"/><path fill="#5f94d1" d="M 179.238281 135.140625 C 179.117188 125.273438 173.042969 117.328125 165.644531 117.417969 C 158.246094 117.507812 152.351562 125.574219 152.441406 135.441406 C 152.5625 145.308594 158.636719 153.253906 166.035156 153.164062 C 173.433594 153.074219 179.328125 145.007812 179.238281 135.140625 Z M 179.238281 135.140625 " fill-opacity="1" fill-rule="evenodd"/><g clip-path="url(#2b4928cbfd)"><path fill="#5f94d1" d="M 223.535156 132.710938 C 223.414062 121.496094 216.496094 112.5 208.105469 112.589844 C 199.714844 112.679688 193.011719 121.855469 193.128906 133.042969 C 193.25 144.257812 200.167969 153.253906 208.558594 153.164062 C 216.949219 153.074219 223.652344 143.925781 223.535156 132.710938 Z M 223.535156 132.710938 " fill-opacity="1" fill-rule="evenodd"/></g><path fill="#5f94d1" d="M 233.667969 143.476562 C 236.824219 137 243.289062 133.640625 248.132812 135.980469 C 252.945312 138.320312 254.296875 145.457031 251.140625 151.933594 C 247.980469 158.410156 241.515625 161.769531 236.675781 159.429688 C 231.863281 157.09375 230.511719 149.953125 233.667969 143.476562 Z M 233.667969 143.476562 " fill-opacity="1" fill-rule="evenodd"/></svg>