<svg xmlns="http://www.w3.org/2000/svg" xmlns:xlink="http://www.w3.org/1999/xlink" width="500" zoomAndPan="magnify" viewBox="0 0 375 374.999991" height="500" preserveAspectRatio="xMidYMid meet" version="1.0"><defs><g/><clipPath id="51710f1938"><path d="M 14 160 L 148 160 L 148 273.433594 L 14 273.433594 Z M 14 160 " clip-rule="nonzero"/></clipPath><clipPath id="e5bee91aef"><path d="M 86 101.683594 L 122 101.683594 L 122 149 L 86 149 Z M 86 101.683594 " clip-rule="nonzero"/></clipPath></defs><g clip-path="url(#51710f1938)"><path fill="#5f94d1" d="M 23.84375 205.070312 C 23.089844 201.804688 22.644531 198.476562 22.644531 195.144531 C 22.644531 194.390625 22.679688 193.667969 22.714844 192.914062 C 22.882812 189.789062 23.46875 186.664062 24.425781 183.675781 C 26.175781 178.285156 29.429688 173.546875 34.398438 170.730469 C 39.882812 167.609375 46.257812 167.503906 52.222656 169.222656 C 61.234375 171.832031 69.121094 178.390625 75.117188 185.429688 L 80.976562 192.328125 L 86.839844 185.429688 C 92.835938 178.390625 100.683594 171.832031 109.734375 169.222656 C 115.695312 167.503906 122.070312 167.609375 127.554688 170.730469 C 132.523438 173.546875 135.78125 178.285156 137.527344 183.675781 C 138.488281 186.664062 139.070312 189.753906 139.242188 192.914062 C 139.792969 202.871094 136.464844 212.726562 131.632812 221.308594 C 125.980469 231.371094 117.957031 240.402344 109.183594 247.816406 C 105.449219 250.976562 101.4375 253.964844 97.257812 256.640625 C 90.4375 261.035156 78.613281 267.527344 81.730469 257.878906 C 83.683594 253.929688 84.746094 250.050781 84.917969 246.167969 C 75.390625 242.632812 70.558594 237.34375 70.421875 230.375 C 71.175781 236.074219 75.390625 240.402344 83.035156 243.351562 C 90.230469 245.480469 92.835938 243.730469 90.882812 238.167969 C 88.722656 232.570312 87.832031 227.972656 88.140625 224.296875 C 88.449219 226.355469 89.304688 229.480469 90.675781 233.738281 L 102.707031 221.960938 C 106.921875 218.390625 108.398438 213.171875 107.164062 206.234375 C 106.511719 202.082031 104.867188 200.46875 102.261719 201.464844 C 94.617188 205.582031 89.410156 206.921875 86.632812 205.445312 C 84.132812 203.453125 79.949219 203.730469 74.089844 206.304688 C 68.46875 209.015625 65.144531 212.621094 64.082031 217.050781 C 60.378906 229.550781 54.554688 237.894531 46.566406 242.046875 C 44.066406 243.351562 41.324219 244.28125 38.410156 244.761719 C 50.441406 257.429688 65.761719 267.765625 81.011719 273.433594 C 118.542969 259.457031 156.550781 217.359375 144.898438 181.238281 C 136.878906 156.34375 106.167969 150.816406 81.011719 180.347656 C 55.855469 150.816406 25.179688 156.34375 17.125 181.238281 C 15.070312 187.558594 14.554688 194.046875 15.308594 200.570312 C 15.308594 200.671875 15.34375 200.777344 15.34375 200.878906 C 15.378906 201.121094 15.414062 201.359375 15.445312 201.601562 C 15.445312 201.738281 15.480469 201.839844 15.480469 201.976562 C 15.515625 202.183594 15.550781 202.425781 15.585938 202.628906 C 15.585938 202.734375 15.617188 202.835938 15.617188 202.941406 C 15.652344 203.25 15.722656 203.523438 15.753906 203.832031 L 15.753906 203.867188 C 15.824219 204.175781 15.859375 204.484375 15.925781 204.828125 L 15.960938 204.929688 C 16.03125 205.238281 16.097656 205.582031 16.167969 205.890625 L 16.167969 205.925781 C 16.234375 206.203125 16.304688 206.476562 16.339844 206.75 C 16.371094 206.886719 16.40625 207.027344 16.441406 207.128906 C 16.441406 207.199219 16.476562 207.230469 16.476562 207.300781 C 19.386719 219.316406 26.378906 230.066406 36.355469 237.621094 C 30.082031 227.660156 25.867188 216.605469 23.84375 205.070312 Z M 23.84375 205.070312 " fill-opacity="1" fill-rule="evenodd"/></g><path fill="#5f94d1" d="M 27.269531 139.625 C 23.671875 132.207031 16.304688 128.359375 10.785156 131.039062 C 5.300781 133.71875 3.757812 141.890625 7.359375 149.304688 C 10.957031 156.722656 18.324219 160.570312 23.84375 157.890625 C 29.328125 155.210938 30.871094 147.039062 27.269531 139.625 Z M 27.269531 139.625 " fill-opacity="1" fill-rule="evenodd"/><path fill="#5f94d1" d="M 70.523438 127.605469 C 70.386719 116.308594 63.464844 107.210938 55.03125 107.3125 C 46.601562 107.417969 39.882812 116.652344 39.988281 127.949219 C 40.125 139.246094 47.046875 148.34375 55.476562 148.242188 C 63.910156 148.140625 70.628906 138.902344 70.523438 127.605469 Z M 70.523438 127.605469 " fill-opacity="1" fill-rule="evenodd"/><g clip-path="url(#e5bee91aef)"><path fill="#5f94d1" d="M 121.007812 124.824219 C 120.871094 111.984375 112.988281 101.683594 103.425781 101.785156 C 93.863281 101.886719 86.222656 112.394531 86.359375 125.203125 C 86.496094 138.042969 94.378906 148.34375 103.941406 148.242188 C 113.503906 148.140625 121.144531 137.667969 121.007812 124.824219 Z M 121.007812 124.824219 " fill-opacity="1" fill-rule="evenodd"/></g><path fill="#5f94d1" d="M 132.558594 137.152344 C 136.15625 129.734375 143.527344 125.890625 149.042969 128.566406 C 154.527344 131.246094 156.070312 139.417969 152.472656 146.835938 C 148.875 154.25 141.503906 158.097656 135.988281 155.417969 C 130.503906 152.738281 128.960938 144.566406 132.558594 137.152344 Z M 132.558594 137.152344 " fill-opacity="1" fill-rule="evenodd"/><g fill="#5f94d1" fill-opacity="1"><g transform="translate(157.17869, 202.800267)"><g><path d="M 14.234375 -27.5625 C 16.203125 -27.5625 17.882812 -27.195312 19.28125 -26.46875 C 20.6875 -25.75 21.75 -24.738281 22.46875 -23.4375 C 23.1875 -22.132812 23.546875 -20.625 23.546875 -18.90625 C 23.546875 -17.1875 23.1875 -15.675781 22.46875 -14.375 C 21.75 -13.082031 20.6875 -12.078125 19.28125 -11.359375 C 17.882812 -10.640625 16.203125 -10.28125 14.234375 -10.28125 L 9.03125 -10.28125 L 9.03125 0 L 3.578125 0 L 3.578125 -27.5625 Z M 13.515625 -14.59375 C 16.546875 -14.59375 18.0625 -16.03125 18.0625 -18.90625 C 18.0625 -21.800781 16.546875 -23.25 13.515625 -23.25 L 9.03125 -23.25 L 9.03125 -14.59375 Z M 13.515625 -14.59375 "/></g></g></g><g fill="#5f94d1" fill-opacity="1"><g transform="translate(182.362213, 202.800267)"><g><path d="M 26.453125 0 L 20.71875 0 L 18.640625 -6.359375 L 8.09375 -6.359375 L 6.015625 0 L 0.421875 0 L 9.9375 -27.5625 L 16.921875 -27.5625 Z M 13.109375 -21.8125 L 9.5625 -10.9375 L 17.140625 -10.9375 L 13.578125 -21.8125 Z M 13.109375 -21.8125 "/></g></g></g><g fill="#5f94d1" fill-opacity="1"><g transform="translate(209.223388, 202.800267)"><g><path d="M 13.15625 0 L 7.0625 0 L 0.75 -27.5625 L 6.1875 -27.5625 L 10.34375 -8.1875 L 10.828125 -8.1875 L 15.765625 -27.5625 L 20.421875 -27.5625 L 25.453125 -8.1875 L 25.921875 -8.1875 L 30.109375 -27.5625 L 35.34375 -27.5625 L 29.046875 0 L 22.9375 0 L 18.109375 -17.78125 L 17.71875 -17.78125 Z M 13.15625 0 "/></g></g></g><g fill="#5f94d1" fill-opacity="1"><g transform="translate(245.302177, 202.800267)"><g><path d="M 12.21875 0.390625 C 10.300781 0.390625 8.597656 0.15625 7.109375 -0.3125 C 5.617188 -0.78125 4.378906 -1.394531 3.390625 -2.15625 C 2.398438 -2.925781 1.640625 -3.769531 1.109375 -4.6875 L 4.109375 -8.34375 L 4.578125 -8.34375 C 5.410156 -7.113281 6.460938 -6.132812 7.734375 -5.40625 C 9.015625 -4.675781 10.507812 -4.3125 12.21875 -4.3125 C 13.675781 -4.3125 14.773438 -4.617188 15.515625 -5.234375 C 16.253906 -5.859375 16.625 -6.707031 16.625 -7.78125 C 16.625 -8.4375 16.503906 -8.984375 16.265625 -9.421875 C 16.023438 -9.867188 15.628906 -10.25 15.078125 -10.5625 C 14.523438 -10.875 13.78125 -11.144531 12.84375 -11.375 L 9.296875 -12.171875 C 6.816406 -12.742188 4.96875 -13.6875 3.75 -15 C 2.539062 -16.3125 1.9375 -18.015625 1.9375 -20.109375 C 1.9375 -21.671875 2.328125 -23.039062 3.109375 -24.21875 C 3.890625 -25.40625 5.023438 -26.320312 6.515625 -26.96875 C 8.003906 -27.625 9.785156 -27.953125 11.859375 -27.953125 C 13.984375 -27.953125 15.800781 -27.671875 17.3125 -27.109375 C 18.832031 -26.554688 20.113281 -25.703125 21.15625 -24.546875 L 18.453125 -20.84375 L 17.984375 -20.84375 C 17.203125 -21.664062 16.304688 -22.28125 15.296875 -22.6875 C 14.296875 -23.09375 13.148438 -23.296875 11.859375 -23.296875 C 10.359375 -23.296875 9.21875 -23.03125 8.4375 -22.5 C 7.664062 -21.976562 7.28125 -21.253906 7.28125 -20.328125 C 7.28125 -19.453125 7.550781 -18.753906 8.09375 -18.234375 C 8.644531 -17.722656 9.59375 -17.328125 10.9375 -17.046875 L 14.546875 -16.28125 C 17.222656 -15.71875 19.164062 -14.757812 20.375 -13.40625 C 21.582031 -12.0625 22.1875 -10.300781 22.1875 -8.125 C 22.1875 -6.40625 21.816406 -4.90625 21.078125 -3.625 C 20.335938 -2.351562 19.21875 -1.363281 17.71875 -0.65625 C 16.226562 0.0390625 14.394531 0.390625 12.21875 0.390625 Z M 12.21875 0.390625 "/></g></g></g><g fill="#5f94d1" fill-opacity="1"><g transform="translate(268.977705, 202.800267)"><g><path d="M 9.03125 0 L 3.578125 0 L 3.578125 -27.5625 L 9.03125 -27.5625 Z M 9.03125 0 "/></g></g></g><g fill="#5f94d1" fill-opacity="1"><g transform="translate(281.607166, 202.800267)"><g><path d="M 22.09375 -27.5625 L 22.09375 -22.984375 L 14.140625 -22.984375 L 14.140625 0 L 8.703125 0 L 8.703125 -22.984375 L 0.75 -22.984375 L 0.75 -27.5625 Z M 22.09375 -27.5625 "/></g></g></g><g fill="#5f94d1" fill-opacity="1"><g transform="translate(304.453297, 202.800267)"><g><path d="M 9.03125 0 L 3.578125 0 L 3.578125 -27.5625 L 9.03125 -27.5625 Z M 9.03125 0 "/></g></g></g><g fill="#5f94d1" fill-opacity="1"><g transform="translate(317.082758, 202.800267)"><g><path d="M 16.375 0 L 9.796875 0 L 0.484375 -27.5625 L 6.28125 -27.5625 L 12.96875 -7.015625 L 13.4375 -7.015625 L 20.046875 -27.5625 L 25.671875 -27.5625 Z M 16.375 0 "/></g></g></g><g fill="#5f94d1" fill-opacity="1"><g transform="translate(343.246478, 202.800267)"><g><path d="M 9.03125 -12.109375 L 9.03125 -4.5625 L 22.1875 -4.5625 L 22.1875 0 L 3.578125 0 L 3.578125 -27.5625 L 21.890625 -27.5625 L 21.890625 -23 L 9.03125 -23 L 9.03125 -16.546875 L 20.265625 -16.546875 L 20.265625 -12.109375 Z M 9.03125 -12.109375 "/></g></g></g><g fill="#5f94d1" fill-opacity="1"><g transform="translate(169.032299, 242.276537)"><g><path d="M 14.234375 -27.5625 C 16.203125 -27.5625 17.882812 -27.195312 19.28125 -26.46875 C 20.6875 -25.75 21.75 -24.738281 22.46875 -23.4375 C 23.1875 -22.132812 23.546875 -20.625 23.546875 -18.90625 C 23.546875 -17.1875 23.1875 -15.675781 22.46875 -14.375 C 21.75 -13.082031 20.6875 -12.078125 19.28125 -11.359375 C 17.882812 -10.640625 16.203125 -10.28125 14.234375 -10.28125 L 9.03125 -10.28125 L 9.03125 0 L 3.578125 0 L 3.578125 -27.5625 Z M 13.515625 -14.59375 C 16.546875 -14.59375 18.0625 -16.03125 18.0625 -18.90625 C 18.0625 -21.800781 16.546875 -23.25 13.515625 -23.25 L 9.03125 -23.25 L 9.03125 -14.59375 Z M 13.515625 -14.59375 "/></g></g></g><g fill="#5f94d1" fill-opacity="1"><g transform="translate(194.215822, 242.276537)"><g><path d="M 26.453125 0 L 20.71875 0 L 18.640625 -6.359375 L 8.09375 -6.359375 L 6.015625 0 L 0.421875 0 L 9.9375 -27.5625 L 16.921875 -27.5625 Z M 13.109375 -21.8125 L 9.5625 -10.9375 L 17.140625 -10.9375 L 13.578125 -21.8125 Z M 13.109375 -21.8125 "/></g></g></g><g fill="#5f94d1" fill-opacity="1"><g transform="translate(221.076996, 242.276537)"><g><path d="M 9.03125 0 L 3.578125 0 L 3.578125 -27.5625 L 9.03125 -27.5625 Z M 9.03125 0 "/></g></g></g><g fill="#5f94d1" fill-opacity="1"><g transform="translate(233.706458, 242.276537)"><g><path d="M 3.578125 0 L 3.578125 -27.5625 L 14.640625 -27.5625 C 17.492188 -27.5625 19.644531 -26.90625 21.09375 -25.59375 C 22.550781 -24.28125 23.28125 -22.46875 23.28125 -20.15625 C 23.28125 -18.476562 22.851562 -17.101562 22 -16.03125 C 21.15625 -14.96875 19.894531 -14.15625 18.21875 -13.59375 L 18.21875 -13.203125 C 19.082031 -12.816406 19.78125 -12.253906 20.3125 -11.515625 C 20.84375 -10.773438 21.347656 -9.675781 21.828125 -8.21875 L 24.578125 0 L 18.984375 0 L 16.28125 -8.234375 C 16.007812 -9.066406 15.703125 -9.710938 15.359375 -10.171875 C 15.015625 -10.628906 14.570312 -10.960938 14.03125 -11.171875 C 13.5 -11.378906 12.804688 -11.484375 11.953125 -11.484375 L 9.03125 -11.484375 L 9.03125 0 Z M 13.984375 -15.796875 C 16.628906 -15.796875 17.953125 -17.03125 17.953125 -19.5 C 17.953125 -22 16.628906 -23.25 13.984375 -23.25 L 9.03125 -23.25 L 9.03125 -15.796875 Z M 13.984375 -15.796875 "/></g></g></g><g fill="#5f94d1" fill-opacity="1"><g transform="translate(259.474335, 242.276537)"><g><path d="M 9.03125 0 L 3.578125 0 L 3.578125 -27.5625 L 9.03125 -27.5625 Z M 9.03125 0 "/></g></g></g><g fill="#5f94d1" fill-opacity="1"><g transform="translate(272.103797, 242.276537)"><g><path d="M 8.859375 0 L 3.578125 0 L 3.578125 -27.5625 L 9.828125 -27.5625 L 20.890625 -9.796875 L 21.375 -9.875 L 21.375 -27.5625 L 26.625 -27.5625 L 26.625 0 L 21.046875 0 L 9.328125 -18.96875 L 8.859375 -18.890625 Z M 8.859375 0 "/></g></g></g><g fill="#5f94d1" fill-opacity="1"><g transform="translate(302.320261, 242.276537)"><g><path d="M 13.390625 0.390625 C 11.085938 0.390625 9.097656 -0.128906 7.421875 -1.171875 C 5.742188 -2.222656 4.445312 -3.804688 3.53125 -5.921875 C 2.625 -8.046875 2.171875 -10.664062 2.171875 -13.78125 C 2.171875 -16.925781 2.71875 -19.554688 3.8125 -21.671875 C 4.90625 -23.785156 6.421875 -25.359375 8.359375 -26.390625 C 10.304688 -27.429688 12.5625 -27.953125 15.125 -27.953125 C 17.757812 -27.953125 20.003906 -27.460938 21.859375 -26.484375 C 23.722656 -25.503906 25.035156 -24.046875 25.796875 -22.109375 L 21.8125 -19.703125 L 21.34375 -19.71875 C 20.78125 -20.945312 19.984375 -21.84375 18.953125 -22.40625 C 17.929688 -22.976562 16.65625 -23.265625 15.125 -23.265625 C 12.75 -23.265625 10.929688 -22.515625 9.671875 -21.015625 C 8.410156 -19.515625 7.78125 -17.101562 7.78125 -13.78125 C 7.78125 -10.445312 8.367188 -8.023438 9.546875 -6.515625 C 10.722656 -5.015625 12.460938 -4.265625 14.765625 -4.265625 C 16.742188 -4.265625 18.203125 -4.707031 19.140625 -5.59375 C 20.085938 -6.488281 20.5625 -7.820312 20.5625 -9.59375 L 20.5625 -10.78125 L 14.046875 -10.78125 L 14.046875 -15.21875 L 25.984375 -15.21875 L 25.984375 0 L 20.78125 0 L 20.78125 -3.6875 L 20.375 -3.75 C 19.8125 -2.425781 18.953125 -1.40625 17.796875 -0.6875 C 16.648438 0.03125 15.179688 0.390625 13.390625 0.390625 Z M 13.390625 0.390625 "/></g></g></g><g fill="#5f94d1" fill-opacity="1"><g transform="translate(331.06643, 242.276537)"><g><path d="M 12.21875 0.390625 C 10.300781 0.390625 8.597656 0.15625 7.109375 -0.3125 C 5.617188 -0.78125 4.378906 -1.394531 3.390625 -2.15625 C 2.398438 -2.925781 1.640625 -3.769531 1.109375 -4.6875 L 4.109375 -8.34375 L 4.578125 -8.34375 C 5.410156 -7.113281 6.460938 -6.132812 7.734375 -5.40625 C 9.015625 -4.675781 10.507812 -4.3125 12.21875 -4.3125 C 13.675781 -4.3125 14.773438 -4.617188 15.515625 -5.234375 C 16.253906 -5.859375 16.625 -6.707031 16.625 -7.78125 C 16.625 -8.4375 16.503906 -8.984375 16.265625 -9.421875 C 16.023438 -9.867188 15.628906 -10.25 15.078125 -10.5625 C 14.523438 -10.875 13.78125 -11.144531 12.84375 -11.375 L 9.296875 -12.171875 C 6.816406 -12.742188 4.96875 -13.6875 3.75 -15 C 2.539062 -16.3125 1.9375 -18.015625 1.9375 -20.109375 C 1.9375 -21.671875 2.328125 -23.039062 3.109375 -24.21875 C 3.890625 -25.40625 5.023438 -26.320312 6.515625 -26.96875 C 8.003906 -27.625 9.785156 -27.953125 11.859375 -27.953125 C 13.984375 -27.953125 15.800781 -27.671875 17.3125 -27.109375 C 18.832031 -26.554688 20.113281 -25.703125 21.15625 -24.546875 L 18.453125 -20.84375 L 17.984375 -20.84375 C 17.203125 -21.664062 16.304688 -22.28125 15.296875 -22.6875 C 14.296875 -23.09375 13.148438 -23.296875 11.859375 -23.296875 C 10.359375 -23.296875 9.21875 -23.03125 8.4375 -22.5 C 7.664062 -21.976562 7.28125 -21.253906 7.28125 -20.328125 C 7.28125 -19.453125 7.550781 -18.753906 8.09375 -18.234375 C 8.644531 -17.722656 9.59375 -17.328125 10.9375 -17.046875 L 14.546875 -16.28125 C 17.222656 -15.71875 19.164062 -14.757812 20.375 -13.40625 C 21.582031 -12.0625 22.1875 -10.300781 22.1875 -8.125 C 22.1875 -6.40625 21.816406 -4.90625 21.078125 -3.625 C 20.335938 -2.351562 19.21875 -1.363281 17.71875 -0.65625 C 16.226562 0.0390625 14.394531 0.390625 12.21875 0.390625 Z M 12.21875 0.390625 "/></g></g></g></svg>